<mxfile host="app.diagrams.net" modified="2022-03-14T10:41:53.406Z" agent="5.0 (Windows NT 10.0; Win64; x64) AppleWebKit/537.36 (KHTML, like Gecko) Chrome/97.0.4692.99 Safari/537.36 Edg/97.0.1072.69" etag="yCzmGonHAV01ayXOvn-B" version="17.1.2" type="github">
  <diagram id="vkrxlcEhSVqaesgI-VJM" name="Page-1">
    <mxGraphModel dx="1038" dy="579" grid="1" gridSize="10" guides="1" tooltips="1" connect="1" arrows="1" fold="1" page="1" pageScale="1" pageWidth="827" pageHeight="1169" math="0" shadow="0">
      <root>
        <mxCell id="0" />
        <mxCell id="1" parent="0" />
        <mxCell id="Q_rpGc-FQ6wsNoZeYVbg-63" value="" style="group" parent="1" vertex="1" connectable="0">
          <mxGeometry x="190" y="110" width="545" height="290" as="geometry" />
        </mxCell>
        <mxCell id="Q_rpGc-FQ6wsNoZeYVbg-23" value="User" style="rounded=0;whiteSpace=wrap;html=1;shadow=0;glass=0;sketch=0;" parent="Q_rpGc-FQ6wsNoZeYVbg-63" vertex="1">
          <mxGeometry width="100" height="30" as="geometry" />
        </mxCell>
        <mxCell id="Q_rpGc-FQ6wsNoZeYVbg-24" value="资产配置管理" style="rounded=0;whiteSpace=wrap;html=1;shadow=0;glass=0;sketch=0;" parent="Q_rpGc-FQ6wsNoZeYVbg-63" vertex="1">
          <mxGeometry x="150" width="100" height="30" as="geometry" />
        </mxCell>
        <mxCell id="Q_rpGc-FQ6wsNoZeYVbg-25" value="Host" style="rounded=0;whiteSpace=wrap;html=1;shadow=0;glass=0;sketch=0;" parent="Q_rpGc-FQ6wsNoZeYVbg-63" vertex="1">
          <mxGeometry x="310" width="100" height="30" as="geometry" />
        </mxCell>
        <mxCell id="Q_rpGc-FQ6wsNoZeYVbg-26" value="" style="rounded=1;whiteSpace=wrap;html=1;shadow=0;glass=0;sketch=0;" parent="Q_rpGc-FQ6wsNoZeYVbg-63" vertex="1">
          <mxGeometry x="35" y="50" width="30" height="240" as="geometry" />
        </mxCell>
        <mxCell id="Q_rpGc-FQ6wsNoZeYVbg-27" value="" style="rounded=1;whiteSpace=wrap;html=1;shadow=0;glass=0;sketch=0;" parent="Q_rpGc-FQ6wsNoZeYVbg-63" vertex="1">
          <mxGeometry x="185" y="50" width="30" height="240" as="geometry" />
        </mxCell>
        <mxCell id="Q_rpGc-FQ6wsNoZeYVbg-31" value="" style="endArrow=classic;html=1;rounded=0;entryX=0.022;entryY=0.049;entryDx=0;entryDy=0;entryPerimeter=0;" parent="Q_rpGc-FQ6wsNoZeYVbg-63" target="Q_rpGc-FQ6wsNoZeYVbg-27" edge="1">
          <mxGeometry relative="1" as="geometry">
            <mxPoint x="65" y="60" as="sourcePoint" />
            <mxPoint x="180" y="60" as="targetPoint" />
          </mxGeometry>
        </mxCell>
        <mxCell id="Q_rpGc-FQ6wsNoZeYVbg-32" value="1.导入ip和port" style="edgeLabel;resizable=0;html=1;align=center;verticalAlign=middle;rounded=0;shadow=0;glass=0;sketch=0;" parent="Q_rpGc-FQ6wsNoZeYVbg-31" connectable="0" vertex="1">
          <mxGeometry relative="1" as="geometry" />
        </mxCell>
        <mxCell id="Q_rpGc-FQ6wsNoZeYVbg-34" value="" style="endArrow=classic;html=1;rounded=0;entryX=0;entryY=0.25;entryDx=0;entryDy=0;" parent="Q_rpGc-FQ6wsNoZeYVbg-63" target="Q_rpGc-FQ6wsNoZeYVbg-36" edge="1">
          <mxGeometry relative="1" as="geometry">
            <mxPoint x="215" y="60" as="sourcePoint" />
            <mxPoint x="340" y="60" as="targetPoint" />
          </mxGeometry>
        </mxCell>
        <mxCell id="Q_rpGc-FQ6wsNoZeYVbg-35" value="2.1检查端口通畅" style="edgeLabel;resizable=0;html=1;align=center;verticalAlign=middle;rounded=0;shadow=0;glass=0;sketch=0;" parent="Q_rpGc-FQ6wsNoZeYVbg-34" connectable="0" vertex="1">
          <mxGeometry relative="1" as="geometry" />
        </mxCell>
        <mxCell id="Q_rpGc-FQ6wsNoZeYVbg-36" value="" style="rounded=1;whiteSpace=wrap;html=1;shadow=0;glass=0;sketch=0;" parent="Q_rpGc-FQ6wsNoZeYVbg-63" vertex="1">
          <mxGeometry x="345" y="50" width="30" height="40" as="geometry" />
        </mxCell>
        <mxCell id="Q_rpGc-FQ6wsNoZeYVbg-37" value="" style="endArrow=classic;html=1;rounded=0;entryX=0.967;entryY=0.141;entryDx=0;entryDy=0;entryPerimeter=0;exitX=0;exitY=0.75;exitDx=0;exitDy=0;" parent="Q_rpGc-FQ6wsNoZeYVbg-63" edge="1">
          <mxGeometry relative="1" as="geometry">
            <mxPoint x="345" y="82" as="sourcePoint" />
            <mxPoint x="214.01" y="81.61000000000001" as="targetPoint" />
          </mxGeometry>
        </mxCell>
        <mxCell id="Q_rpGc-FQ6wsNoZeYVbg-38" value="2.2不通畅" style="edgeLabel;resizable=0;html=1;align=center;verticalAlign=middle;rounded=0;shadow=0;glass=0;sketch=0;" parent="Q_rpGc-FQ6wsNoZeYVbg-37" connectable="0" vertex="1">
          <mxGeometry relative="1" as="geometry" />
        </mxCell>
        <mxCell id="Q_rpGc-FQ6wsNoZeYVbg-39" value="" style="endArrow=classic;html=1;rounded=0;entryX=-0.052;entryY=0.136;entryDx=0;entryDy=0;entryPerimeter=0;exitX=1;exitY=0.25;exitDx=0;exitDy=0;" parent="Q_rpGc-FQ6wsNoZeYVbg-63" source="Q_rpGc-FQ6wsNoZeYVbg-27" target="Q_rpGc-FQ6wsNoZeYVbg-42" edge="1">
          <mxGeometry relative="1" as="geometry">
            <mxPoint x="220" y="106" as="sourcePoint" />
            <mxPoint x="345.57000000000005" y="99.90000000000003" as="targetPoint" />
          </mxGeometry>
        </mxCell>
        <mxCell id="Q_rpGc-FQ6wsNoZeYVbg-40" value="3.1ssh连接主机启动agent" style="edgeLabel;resizable=0;html=1;align=center;verticalAlign=middle;rounded=0;shadow=0;glass=0;sketch=0;" parent="Q_rpGc-FQ6wsNoZeYVbg-39" connectable="0" vertex="1">
          <mxGeometry relative="1" as="geometry" />
        </mxCell>
        <mxCell id="Q_rpGc-FQ6wsNoZeYVbg-41" value="Agent" style="rounded=0;whiteSpace=wrap;html=1;shadow=0;glass=0;sketch=0;" parent="Q_rpGc-FQ6wsNoZeYVbg-63" vertex="1">
          <mxGeometry x="445" width="100" height="30" as="geometry" />
        </mxCell>
        <mxCell id="Q_rpGc-FQ6wsNoZeYVbg-42" value="" style="rounded=1;whiteSpace=wrap;html=1;shadow=0;glass=0;sketch=0;" parent="Q_rpGc-FQ6wsNoZeYVbg-63" vertex="1">
          <mxGeometry x="480" y="90" width="30" height="130" as="geometry" />
        </mxCell>
        <mxCell id="Q_rpGc-FQ6wsNoZeYVbg-44" value="" style="endArrow=classic;html=1;rounded=0;" parent="Q_rpGc-FQ6wsNoZeYVbg-63" edge="1">
          <mxGeometry relative="1" as="geometry">
            <mxPoint x="510" y="107.71000000000001" as="sourcePoint" />
            <mxPoint x="510" y="158" as="targetPoint" />
            <Array as="points">
              <mxPoint x="540" y="128" />
            </Array>
          </mxGeometry>
        </mxCell>
        <mxCell id="Q_rpGc-FQ6wsNoZeYVbg-45" value="3.2获取主机信息，写本地配置文件" style="edgeLabel;resizable=0;html=1;align=center;verticalAlign=middle;rounded=0;shadow=0;glass=0;sketch=0;" parent="Q_rpGc-FQ6wsNoZeYVbg-44" connectable="0" vertex="1">
          <mxGeometry relative="1" as="geometry" />
        </mxCell>
        <mxCell id="Q_rpGc-FQ6wsNoZeYVbg-46" value="" style="endArrow=classic;html=1;rounded=0;entryX=-0.052;entryY=0.136;entryDx=0;entryDy=0;entryPerimeter=0;exitX=1;exitY=0.5;exitDx=0;exitDy=0;" parent="Q_rpGc-FQ6wsNoZeYVbg-63" source="Q_rpGc-FQ6wsNoZeYVbg-27" edge="1">
          <mxGeometry relative="1" as="geometry">
            <mxPoint x="216.56" y="170" as="sourcePoint" />
            <mxPoint x="480" y="171.10000000000002" as="targetPoint" />
          </mxGeometry>
        </mxCell>
        <mxCell id="Q_rpGc-FQ6wsNoZeYVbg-47" value="3.3定时拉取配置文件信息" style="edgeLabel;resizable=0;html=1;align=center;verticalAlign=middle;rounded=0;shadow=0;glass=0;sketch=0;" parent="Q_rpGc-FQ6wsNoZeYVbg-46" connectable="0" vertex="1">
          <mxGeometry relative="1" as="geometry" />
        </mxCell>
        <mxCell id="Q_rpGc-FQ6wsNoZeYVbg-48" value="" style="endArrow=classic;html=1;rounded=0;entryX=1;entryY=0.75;entryDx=0;entryDy=0;exitX=-0.015;exitY=0.916;exitDx=0;exitDy=0;exitPerimeter=0;" parent="Q_rpGc-FQ6wsNoZeYVbg-63" edge="1">
          <mxGeometry relative="1" as="geometry">
            <mxPoint x="479.5500000000002" y="199.08000000000004" as="sourcePoint" />
            <mxPoint x="215" y="197.5" as="targetPoint" />
          </mxGeometry>
        </mxCell>
        <mxCell id="Q_rpGc-FQ6wsNoZeYVbg-49" value="3.4同步配置文件信息" style="edgeLabel;resizable=0;html=1;align=center;verticalAlign=middle;rounded=0;shadow=0;glass=0;sketch=0;" parent="Q_rpGc-FQ6wsNoZeYVbg-48" connectable="0" vertex="1">
          <mxGeometry relative="1" as="geometry" />
        </mxCell>
        <mxCell id="Q_rpGc-FQ6wsNoZeYVbg-52" value="" style="endArrow=classic;html=1;rounded=0;entryX=0.022;entryY=0.049;entryDx=0;entryDy=0;entryPerimeter=0;" parent="Q_rpGc-FQ6wsNoZeYVbg-63" edge="1">
          <mxGeometry relative="1" as="geometry">
            <mxPoint x="65.00000000000011" y="240" as="sourcePoint" />
            <mxPoint x="185.66000000000008" y="240.28999999999996" as="targetPoint" />
          </mxGeometry>
        </mxCell>
        <mxCell id="Q_rpGc-FQ6wsNoZeYVbg-53" value="4.2确认是否同步" style="edgeLabel;resizable=0;html=1;align=center;verticalAlign=middle;rounded=0;shadow=0;glass=0;sketch=0;" parent="Q_rpGc-FQ6wsNoZeYVbg-52" connectable="0" vertex="1">
          <mxGeometry relative="1" as="geometry" />
        </mxCell>
        <mxCell id="Q_rpGc-FQ6wsNoZeYVbg-56" value="" style="endArrow=classic;html=1;rounded=0;entryX=1;entryY=0.75;entryDx=0;entryDy=0;exitX=-0.008;exitY=0.624;exitDx=0;exitDy=0;exitPerimeter=0;" parent="Q_rpGc-FQ6wsNoZeYVbg-63" edge="1">
          <mxGeometry relative="1" as="geometry">
            <mxPoint x="184.76" y="197.76" as="sourcePoint" />
            <mxPoint x="65" y="198" as="targetPoint" />
          </mxGeometry>
        </mxCell>
        <mxCell id="Q_rpGc-FQ6wsNoZeYVbg-57" value="4.1获取失败提醒" style="edgeLabel;resizable=0;html=1;align=center;verticalAlign=middle;rounded=0;shadow=0;glass=0;sketch=0;" parent="Q_rpGc-FQ6wsNoZeYVbg-56" connectable="0" vertex="1">
          <mxGeometry relative="1" as="geometry" />
        </mxCell>
        <mxCell id="Q_rpGc-FQ6wsNoZeYVbg-58" value="" style="endArrow=none;dashed=1;html=1;rounded=0;entryX=0.5;entryY=1;entryDx=0;entryDy=0;" parent="Q_rpGc-FQ6wsNoZeYVbg-63" source="Q_rpGc-FQ6wsNoZeYVbg-26" target="Q_rpGc-FQ6wsNoZeYVbg-23" edge="1">
          <mxGeometry width="50" height="50" relative="1" as="geometry">
            <mxPoint x="-30" y="110" as="sourcePoint" />
            <mxPoint x="20" y="60" as="targetPoint" />
          </mxGeometry>
        </mxCell>
        <mxCell id="Q_rpGc-FQ6wsNoZeYVbg-59" value="" style="endArrow=none;dashed=1;html=1;rounded=0;entryX=0.5;entryY=1;entryDx=0;entryDy=0;" parent="Q_rpGc-FQ6wsNoZeYVbg-63" edge="1">
          <mxGeometry width="50" height="50" relative="1" as="geometry">
            <mxPoint x="201" y="51" as="sourcePoint" />
            <mxPoint x="201" y="31" as="targetPoint" />
          </mxGeometry>
        </mxCell>
        <mxCell id="Q_rpGc-FQ6wsNoZeYVbg-60" value="" style="endArrow=none;dashed=1;html=1;rounded=0;entryX=0.5;entryY=1;entryDx=0;entryDy=0;" parent="Q_rpGc-FQ6wsNoZeYVbg-63" edge="1">
          <mxGeometry width="50" height="50" relative="1" as="geometry">
            <mxPoint x="360" y="50" as="sourcePoint" />
            <mxPoint x="360" y="30" as="targetPoint" />
          </mxGeometry>
        </mxCell>
        <mxCell id="Q_rpGc-FQ6wsNoZeYVbg-61" value="" style="endArrow=none;dashed=1;html=1;rounded=0;exitX=0.5;exitY=0;exitDx=0;exitDy=0;" parent="Q_rpGc-FQ6wsNoZeYVbg-63" source="Q_rpGc-FQ6wsNoZeYVbg-42" edge="1">
          <mxGeometry width="50" height="50" relative="1" as="geometry">
            <mxPoint x="489" y="51" as="sourcePoint" />
            <mxPoint x="495" y="30" as="targetPoint" />
          </mxGeometry>
        </mxCell>
        <mxCell id="Q_rpGc-FQ6wsNoZeYVbg-62" value="" style="endArrow=none;dashed=1;html=1;rounded=0;entryX=0.5;entryY=1;entryDx=0;entryDy=0;" parent="Q_rpGc-FQ6wsNoZeYVbg-63" target="Q_rpGc-FQ6wsNoZeYVbg-42" edge="1">
          <mxGeometry width="50" height="50" relative="1" as="geometry">
            <mxPoint x="495" y="290" as="sourcePoint" />
            <mxPoint x="530" y="230" as="targetPoint" />
          </mxGeometry>
        </mxCell>
        <mxCell id="OZHUakiQeK5JtwZ3szxw-1" value="" style="rounded=0;whiteSpace=wrap;html=1;" vertex="1" parent="1">
          <mxGeometry x="60" y="460" width="120" height="30" as="geometry" />
        </mxCell>
      </root>
    </mxGraphModel>
  </diagram>
</mxfile>
